<?xml version="1.0" encoding="UTF-8" standalone="no"?>
<svg width="11px" height="22px" viewBox="0 0 11 22" version="1.1" xmlns="http://www.w3.org/2000/svg" xmlns:xlink="http://www.w3.org/1999/xlink" xmlns:sketch="http://www.bohemiancoding.com/sketch/ns">
    <!-- Generator: Sketch 3.0.1 (7597) - http://www.bohemiancoding.com/sketch -->
    <title>fb_icon</title>
    <description>Created with Sketch.</description>
    <defs></defs>
    <g id="Page-1" stroke="none" stroke-width="1" fill="none" fill-rule="evenodd" sketch:type="MSPage">
        <g id="fb_icon" sketch:type="MSLayerGroup" transform="translate(0.000000, 1.000000)" fill="#000000">
            <g id="Page-1" sketch:type="MSShapeGroup">
                <g id="fb_icon">
                    <path d="M10.5828462,-0.00875 L7.9458077,-0.0129166667 C4.98342308,-0.0129166667 3.06921155,1.92145834 3.06921155,4.91541666 L3.06921155,7.18770834 L0.417788462,7.18770834 C0.188692308,7.18770834 0.00317307692,7.370625 0.00317307692,7.59625 L0.00317307692,10.8885417 C0.00317307692,11.1141667 0.188903845,11.296875 0.417788462,11.296875 L3.069,11.296875 L3.069,19.6043751 C3.069,19.83 3.25451923,20.0127083 3.48361538,20.0127083 L6.9426923,20.0127083 C7.17178845,20.0127083 7.3573077,19.8297917 7.3573077,19.6043751 L7.3573077,11.296875 L10.4571923,11.296875 C10.6862885,11.296875 10.8718077,11.1141667 10.8718077,10.8885417 L10.8730769,7.59625 C10.8730769,7.48791666 10.8292885,7.38416666 10.7516538,7.3075 C10.6738077,7.23083334 10.56825,7.18770834 10.45825,7.18770834 L7.35751923,7.18770834 L7.35751923,5.26145834 C7.35751923,4.335625 7.58153845,3.865625 8.80592308,3.865625 L10.5824231,3.865 C10.8113077,3.865 10.9968269,3.68208334 10.9968269,3.45666666 L10.9968269,0.399583334 C10.9968269,0.174375 10.8115192,-0.00833333334 10.5828462,-0.00875 L10.5828462,-0.00875 L10.5828462,-0.00875 Z" id="Shape"></path>
                </g>
            </g>
        </g>
    </g>
</svg>