<?xml version="1.0" encoding="UTF-8" standalone="no"?>
<svg width="20px" height="20px" viewBox="0 0 20 20" version="1.1" xmlns="http://www.w3.org/2000/svg" xmlns:xlink="http://www.w3.org/1999/xlink" xmlns:sketch="http://www.bohemiancoding.com/sketch/ns">
    <!-- Generator: Sketch 3.0.1 (7597) - http://www.bohemiancoding.com/sketch -->
    <title>insta_icon</title>
    <description>Created with Sketch.</description>
    <defs></defs>
    <g id="Page-1" stroke="none" stroke-width="1" fill="none" fill-rule="evenodd" sketch:type="MSPage">
        <g id="insta_icon" sketch:type="MSLayerGroup" fill="#000000">
            <g id="Page-1" sketch:type="MSShapeGroup">
                <g id="insta_icon">
                    <path d="M17.3333334,0 L2.66666666,0 C1.16666667,0 0,1.16666667 0,2.66666666 L0,17.3333334 C0,18.8333334 1.16666667,20 2.66666666,20 L17.3333334,20 C18.8333334,20 20,18.8333334 20,17.3333334 L20,2.66666666 C20,1.16666667 18.8333334,0 17.3333334,0 L17.3333334,0 L17.3333334,0 Z M2.66666666,1.66666666 L17.3333334,1.66666666 C17.9166666,1.66666666 18.3333334,2.08333334 18.3333334,2.66666666 L18.3333334,6.66666666 L14.1008333,6.66666666 C13.0516667,5.63416666 11.6083333,5 10,5 C8.39166666,5 6.94833334,5.63416666 5.89916666,6.66666666 L1.66666666,6.66666666 L1.66666666,2.66666666 C1.66666666,2.08333334 2.08333334,1.66666666 2.66666666,1.66666666 L2.66666666,1.66666666 L2.66666666,1.66666666 Z M14.1666667,10.8333333 C14.1666667,13.1666667 12.3333333,15 10,15 C7.66666666,15 5.83333334,13.1666667 5.83333334,10.8333333 C5.83333334,8.5 7.66666666,6.66666666 10,6.66666666 C12.3333333,6.66666666 14.1666667,8.5 14.1666667,10.8333333 L14.1666667,10.8333333 L14.1666667,10.8333333 Z M15.6783334,9.50666666 C15.69,9.55166666 15.7025,9.59416666 15.7125,9.64 C15.705,9.595 15.69,9.55166666 15.6783334,9.50666666 L15.6783334,9.50666666 L15.6783334,9.50666666 Z M15.7608334,9.94916666 C15.775,10.0425 15.7933334,10.1333333 15.8033334,10.2283333 C15.7933334,10.1341667 15.775,10.0425 15.7608334,9.94916666 L15.7608334,9.94916666 L15.7608334,9.94916666 Z M4.1975,10.2283333 C4.20666666,10.1333333 4.225,10.0425 4.23916666,9.94916666 C4.225,10.0425 4.20666666,10.1341667 4.1975,10.2283333 L4.1975,10.2283333 L4.1975,10.2283333 Z M4.28666666,9.64 C4.29583334,9.59416666 4.31,9.55166666 4.32083334,9.50583334 C4.31,9.55166666 4.29583334,9.595 4.28666666,9.64 L4.28666666,9.64 L4.28666666,9.64 Z M14.1666667,5.58333334 L14.1666667,2.75 C14.1666667,2.58333334 14.25,2.5 14.4166667,2.5 L17.25,2.5 C17.4166666,2.5 17.5,2.58333334 17.5,2.75 L17.5,5.58333334 C17.5,5.75 17.4166666,5.83333334 17.25,5.83333334 L14.4166667,5.83333334 C14.25,5.83333334 14.1666667,5.75 14.1666667,5.58333334 L14.1666667,5.58333334 L14.1666667,5.58333334 Z M12.5,10.8333333 C12.5,12.25 11.4166667,13.3333333 10,13.3333333 C8.58333334,13.3333333 7.5,12.25 7.5,10.8333333 C7.5,10.5833333 7.58333334,10.3333333 7.58333334,10.0833333 C7.83333334,10.5 8.25,10.8333333 8.75,10.8333333 C9.41666666,10.8333333 10,10.25 10,9.58333334 C10,9.08333334 9.66666666,8.58333334 9.25,8.41666666 C9.5,8.41666666 9.75,8.33333334 10,8.33333334 C11.4166667,8.33333334 12.5,9.41666666 12.5,10.8333333 L12.5,10.8333333 L12.5,10.8333333 Z" id="Shape"></path>
                </g>
            </g>
        </g>
    </g>
</svg>