<?xml version="1.0" encoding="UTF-8" standalone="no"?>
<svg width="15px" height="20px" viewBox="0 0 15 20" version="1.1" xmlns="http://www.w3.org/2000/svg" xmlns:xlink="http://www.w3.org/1999/xlink" xmlns:sketch="http://www.bohemiancoding.com/sketch/ns">
    <!-- Generator: Sketch 3.0.1 (7597) - http://www.bohemiancoding.com/sketch -->
    <title>pinterest_icon</title>
    <description>Created with Sketch.</description>
    <defs></defs>
    <g id="Page-1" stroke="none" stroke-width="1" fill="none" fill-rule="evenodd" sketch:type="MSPage">
        <g id="pinterest_icon" sketch:type="MSLayerGroup" fill="#000000">
            <g id="Page-1" sketch:type="MSShapeGroup">
                <g id="pinterest_icon">
                    <path d="M12.8039597,2.11805128 C10.2348322,-0.729948718 5.89922818,-0.53948718 3.01651006,1.65753846 C0.559127517,3.53035897 -1.17714765,7.68892308 0.887919463,10.5188718 C1.31003356,11.0973333 1.92855705,11.4501538 2.61332215,11.5934359 C2.79614094,11.6316923 2.94302013,11.5408205 3.00704698,11.365641 C3.14557047,10.9871795 3.2933557,10.6317949 3.32526846,10.2265641 C3.33744966,10.072 3.21563758,9.98502565 3.08909395,9.97835897 C1.21620805,7.88266666 2.48838925,5.27466666 4.31355705,3.66184615 C5.92721476,2.23610257 8.89036912,0.900102565 10.7870134,2.5428718 C12.0958389,3.67651282 12.195604,5.7948718 12.1328859,7.39538462 C12.0541611,9.40266666 11.3657718,11.5184615 9.32023489,12.1569231 C8.64664429,12.3671795 7.86744966,12.2836923 7.42036912,11.6794872 C6.91530201,10.9969231 7.07728188,10.1741538 7.26865771,9.42143589 C7.56332215,8.26246154 8.26167784,6.62174358 7.60026846,5.47528205 C6.79953019,4.08717949 5.18667784,5.34933334 4.72087248,6.28410257 C4.43718121,6.85343589 3.92617449,8.6771282 4.68030201,9.14471795 C3.87895972,11.209641 3.3383557,13.4787692 2.97271812,15.656718 C2.80852348,16.6347692 2.65731543,17.7110769 2.83912752,18.6977435 C2.84879194,18.7499488 3.05607382,19.492 3.26345637,19.7820512 C3.23114094,19.9691282 3.50204698,20.036718 3.60996645,19.8895385 C4.34778523,18.8833846 5.10352348,17.9196923 5.51053692,16.7189743 C5.72677852,16.0811282 5.8071141,15.3821538 5.93657718,14.7221538 C6.02728188,14.2597949 6.21302013,13.7339487 6.26003355,13.2411282 C6.26295301,13.2406154 6.26567113,13.2394872 6.26869128,13.2389744 C6.90563759,13.7375385 7.762651,14.1594872 8.51949664,14.3093333 C9.70963088,14.5449231 11.1124832,14.0935385 12.0845638,13.4090256 C12.2330537,13.3044103 12.381745,13.1784615 12.525,13.0377436 C12.9742953,12.7328205 13.3839262,12.3372308 13.7340604,11.8384615 C15.7479865,8.96943589 15.0641275,4.62369231 12.8039597,2.11805128 L12.8039597,2.11805128 L12.8039597,2.11805128 Z M2.66446308,10.4526154 C2.68057047,10.4701538 2.69748322,10.4846154 2.71459731,10.4972308 C2.70392617,10.5215385 2.69204698,10.5452308 2.68087248,10.5693333 C2.65671141,10.5371282 2.63134228,10.5059487 2.60667784,10.4741538 C2.6121141,10.4444103 2.61161074,10.4142564 2.60496645,10.3838974 C2.62520134,10.4066667 2.64352348,10.4298462 2.66446308,10.4526154 L2.66446308,10.4526154 L2.66446308,10.4526154 Z M1.41402685,4.76902565 C1.22567114,5.10215385 1.06590604,5.44492308 0.934328859,5.79876923 C1.0388255,5.41784615 1.17956376,5.04923077 1.35422819,4.69435897 C1.37959732,4.70523077 1.40718121,4.71210257 1.43597315,4.71589743 C1.42832215,4.73343589 1.42137584,4.75138462 1.41402685,4.76902565 L1.41402685,4.76902565 L1.41402685,4.76902565 Z M12.8649664,3.34717949 C12.8350671,3.30769231 12.7992282,3.27661538 12.7600671,3.25251282 C12.7513087,3.23969231 12.7402349,3.23056411 12.7303691,3.21928205 C12.7177852,3.17610257 12.7027852,3.13548718 12.6892953,3.09333334 C12.803255,3.24256411 12.9128859,3.39589743 13.0146644,3.55538462 C12.9663423,3.48533334 12.9169128,3.41579488 12.8649664,3.34717949 L12.8649664,3.34717949 L12.8649664,3.34717949 Z" id="Shape"></path>
                </g>
            </g>
        </g>
    </g>
</svg>