<?xml version="1.0" encoding="UTF-8" standalone="no"?>
<svg width="24px" height="21px" viewBox="0 0 24 21" version="1.1" xmlns="http://www.w3.org/2000/svg" xmlns:xlink="http://www.w3.org/1999/xlink" xmlns:sketch="http://www.bohemiancoding.com/sketch/ns">
    <!-- Generator: Sketch 3.0.1 (7597) - http://www.bohemiancoding.com/sketch -->
    <title>twttr_icon</title>
    <description>Created with Sketch.</description>
    <defs></defs>
    <g id="Page-1" stroke="none" stroke-width="1" fill="none" fill-rule="evenodd" sketch:type="MSPage">
        <g id="twttr_icon" sketch:type="MSLayerGroup" fill="#000000">
            <path d="M24.0015,2.59692308 C23.118,2.99846154 22.17,3.27076923 21.174,3.39230769 C22.191,2.76769231 22.9695,1.77692308 23.3385,0.6 C22.386,1.17846154 21.3315,1.59846154 20.2095,1.82615385 C19.3125,0.843076923 18.033,0.230769231 16.617,0.230769231 C13.8975,0.230769231 11.6925,2.49230769 11.6925,5.28 C11.6925,5.67538462 11.736,6.06153846 11.82,6.43076923 C7.728,6.22 4.0995,4.20923077 1.671,1.15384615 C1.2465,1.89846154 1.005,2.76615385 1.005,3.69230769 C1.005,5.44461538 1.875,6.99076923 3.195,7.89538462 C2.388,7.86769231 1.629,7.64 0.9645,7.26153846 L0.9645,7.32461538 C0.9645,9.77076923 2.6625,11.8123077 4.914,12.2769231 C4.5015,12.3907692 4.0665,12.4538462 3.6165,12.4538462 C3.2985,12.4538462 2.991,12.4215385 2.6895,12.3615385 C3.3165,14.3676923 5.1345,15.8276923 7.2885,15.8692308 C5.604,17.2230769 3.48,18.0292308 1.173,18.0292308 C0.7755,18.0292308 0.384,18.0046154 -0.0015,17.96 C2.178,19.3938462 4.7655,20.2307692 7.5465,20.2307692 C16.6035,20.2307692 21.5565,12.5353846 21.5565,5.86153846 L21.54,5.20769231 C22.506,4.49846154 23.343,3.60923077 24.0015,2.59692308 L24.0015,2.59692308 Z" id="Shape" sketch:type="MSShapeGroup"></path>
        </g>
    </g>
</svg>